<svg xmlns="http://www.w3.org/2000/svg" width="436" height="526" viewBox="0 0 436 526">
  <defs>
    <style>
      .cls-1 {
        fill: #bb1212;
      }

      .cls-1, .cls-2 {
        fill-rule: evenodd;
      }

      .cls-2 {
        opacity: 0.1;
      }
    </style>
  </defs>
  <path id="Shape_24_copy" data-name="Shape 24 copy" class="cls-1" d="M406,31l0,331.421L351,318V153L218,252H174ZM384,42L174,241V219ZM351,330l55,43v34l-55-44V330ZM30,494.992L30,164l55,44V374L218,274h44ZM52,484L262,285v22ZM85,197L30,153V119l55,45v33Z"/>
  <path class="cls-2" d="M54,221l27.573-13.342L82,208V373.9L54,399V221Zm0,210,40-34L220,289l38.159-14.2L27,494.991ZM253,302l5.87-16.877L259,285v22L53.243,480.424Zm107,54,29,23,13.819-6.142L403,373v34l-54.857-43.886ZM39,147l29,23,13.9-6.081L82,164v33L27,153ZM358.532,63.291L171,241v-0.111L178,223,362.376,57.7,374.3,47.647ZM348,317.581L374,305V131.864L348,153,215,252H171l0.841-.8L210,237,374,107l27.912-74.964L403,31l0,331.421L348,318v-0.419Z"/>
</svg>
