<?xml version="1.0" standalone="no"?>
<!DOCTYPE svg PUBLIC "-//W3C//DTD SVG 20010904//EN"
 "http://www.w3.org/TR/2001/REC-SVG-20010904/DTD/svg10.dtd">
<svg version="1.0" xmlns="http://www.w3.org/2000/svg"
 width="1052.000000pt" height="1052.000000pt" viewBox="0 0 1052.000000 1052.000000"
 preserveAspectRatio="xMidYMid meet">
<metadata>
Created by potrace 1.14, written by Peter Selinger 2001-2017
</metadata>
<g transform="translate(0.000000,1052.000000) scale(0.100000,-0.100000)"
fill="#000000" stroke="none">
<path d="M8995 9879 c-35 -35 -246 -238 -384 -369 -90 -85 -196 -186 -237
-225 -40 -38 -132 -126 -204 -195 -73 -69 -167 -159 -210 -200 -43 -41 -116
-111 -162 -154 -45 -43 -153 -145 -238 -227 -85 -81 -182 -173 -215 -204 -75
-71 -376 -359 -464 -443 -36 -35 -124 -118 -195 -185 -161 -153 -390 -371
-616 -587 -26 -25 -120 -115 -210 -200 -90 -85 -189 -181 -222 -212 -32 -32
-58 -57 -58 -55 0 1 -44 -41 -98 -93 -54 -52 -168 -161 -253 -242 -85 -80
-179 -170 -210 -200 -31 -29 -119 -112 -195 -185 -76 -72 -176 -167 -220 -210
-45 -43 -112 -107 -149 -142 -50 -47 -64 -65 -54 -72 7 -4 18 -4 24 0 5 5 19
5 30 1 11 -4 27 -4 36 1 8 4 21 4 29 -1 8 -5 21 -5 30 0 9 5 22 5 29 1 7 -5
30 -5 51 -1 21 4 44 4 51 -1 7 -4 20 -4 29 1 9 5 22 5 29 1 7 -5 30 -5 51 -1
21 4 44 4 51 -1 7 -4 20 -4 29 1 9 5 22 5 29 1 7 -5 30 -5 51 -1 21 4 44 4 51
-1 7 -4 20 -4 29 1 9 5 22 5 29 1 7 -5 27 -5 45 -1 17 4 40 4 51 0 11 -4 30
-4 42 1 13 5 25 4 28 -1 9 -15 49 6 125 67 8 7 65 49 125 93 61 44 121 89 135
100 23 18 141 106 198 148 13 9 82 61 154 115 71 53 132 97 134 97 3 0 15 9
27 21 12 12 33 28 47 38 26 17 137 98 180 132 14 11 68 51 120 89 52 39 104
77 115 86 11 8 81 60 155 115 74 55 142 105 150 112 8 7 49 37 90 67 41 30 82
60 90 67 8 7 58 44 110 82 52 39 100 74 105 78 6 5 44 33 85 63 41 30 77 58
78 62 2 5 8 8 13 8 5 0 17 8 27 18 10 9 29 24 42 32 12 8 35 24 49 36 116 92
332 244 340 240 5 -3 6 -21 1 -41 -4 -19 -4 -37 0 -40 4 -2 4 -22 0 -43 -3
-21 -3 -47 0 -58 4 -10 4 -26 0 -34 -4 -8 -4 -24 0 -35 4 -11 4 -34 0 -51 -4
-18 -4 -38 1 -45 4 -7 4 -20 0 -28 -5 -9 -5 -25 -1 -36 4 -11 4 -29 0 -41 -5
-11 -4 -27 1 -36 6 -11 5 -19 -1 -23 -7 -4 -7 -12 0 -25 7 -13 7 -21 0 -25 -6
-4 -7 -12 -1 -22 5 -9 5 -29 0 -45 -4 -17 -4 -26 2 -23 5 4 6 -3 0 -17 -5 -13
-5 -33 0 -45 5 -13 5 -23 1 -23 -5 0 -7 -15 -5 -32 7 -67 8 -118 3 -118 -7 0
-4 -89 3 -96 3 -4 2 -17 -3 -30 -5 -13 -5 -26 -1 -28 5 -3 5 -23 1 -44 -3 -21
-3 -47 0 -58 4 -10 4 -26 0 -34 -4 -8 -4 -24 0 -35 4 -11 4 -34 0 -51 -4 -18
-4 -38 1 -45 4 -7 4 -20 0 -28 -5 -9 -5 -25 -1 -36 4 -11 4 -29 0 -41 -5 -11
-4 -27 1 -36 6 -11 5 -19 -1 -23 -7 -4 -7 -12 0 -25 7 -13 7 -21 0 -25 -6 -4
-7 -12 -1 -22 5 -9 5 -29 0 -45 -4 -17 -4 -26 2 -23 5 4 6 -3 0 -17 -5 -13 -5
-33 0 -45 5 -13 5 -23 1 -23 -5 0 -7 -15 -5 -32 7 -67 8 -118 3 -118 -7 0 -4
-89 3 -96 3 -4 2 -17 -3 -30 -5 -13 -5 -26 -1 -29 5 -3 5 -20 1 -39 -4 -18 -3
-40 1 -49 6 -10 5 -18 -1 -22 -7 -4 -7 -12 0 -25 7 -13 7 -21 0 -25 -6 -4 -7
-12 -1 -22 5 -9 5 -29 0 -45 -4 -17 -4 -26 2 -23 5 4 6 -3 0 -17 -5 -13 -5
-33 0 -45 5 -13 5 -23 1 -23 -5 0 -7 -15 -5 -32 7 -67 8 -118 3 -118 -7 0 -4
-89 3 -96 3 -4 2 -17 -3 -30 -5 -13 -5 -26 -1 -28 5 -3 5 -23 1 -44 -3 -21 -3
-47 0 -58 4 -10 4 -26 0 -34 -4 -8 -4 -24 0 -35 4 -11 4 -34 0 -51 -4 -18 -4
-38 1 -45 4 -7 4 -20 0 -28 -5 -9 -5 -25 -1 -36 4 -11 4 -29 0 -41 -5 -11 -4
-27 1 -36 6 -11 5 -19 -1 -23 -7 -4 -7 -12 0 -25 7 -13 7 -21 0 -25 -7 -4 -7
-12 0 -24 5 -10 7 -21 3 -24 -9 -10 -4 -109 7 -122 5 -6 9 -14 7 -16 -1 -2 0
-3 2 -2 7 4 121 -90 121 -99 0 -5 4 -7 9 -3 6 3 13 0 18 -7 4 -7 24 -25 43
-39 19 -15 47 -38 63 -52 15 -14 27 -24 27 -22 0 3 10 -4 23 -14 40 -35 64
-55 146 -120 45 -36 81 -68 81 -73 0 -4 5 -8 11 -8 18 0 98 -73 92 -83 -3 -6
-1 -7 5 -3 8 5 55 -25 82 -54 3 -3 21 -17 42 -32 20 -15 42 -34 50 -41 7 -7
31 -26 53 -42 47 -35 56 -46 48 -59 -3 -5 -1 -6 4 -3 9 6 96 -52 113 -73 5 -7
46 -30 52 -30 2 0 0 6495 -3 6510 0 3 0 26 1 53 1 46 -5 56 -25 36z"/>
<path d="M8471 9589 c-13 -11 -22 -21 -20 -23 2 -3 17 7 32 20 15 13 24 24 20
24 -4 -1 -19 -10 -32 -21z"/>
<path d="M8404 9532 c-46 -41 -101 -87 -130 -108 -14 -10 -41 -34 -59 -51 -18
-18 -37 -33 -42 -33 -4 0 -14 -9 -21 -20 -7 -11 -19 -20 -27 -20 -8 0 -15 -7
-15 -15 0 -8 -5 -15 -11 -15 -6 0 -17 -7 -26 -15 -8 -8 -19 -12 -25 -9 -6 4
-8 2 -4 -4 3 -6 -8 -21 -25 -33 -17 -12 -47 -37 -65 -56 -19 -18 -34 -31 -34
-28 0 3 -11 -6 -25 -20 -14 -14 -30 -25 -36 -25 -6 0 -7 -5 -3 -12 5 -8 2 -9
-10 -5 -10 4 -15 3 -11 -3 3 -6 3 -10 -2 -10 -4 0 -33 -23 -62 -50 -30 -28
-62 -50 -70 -50 -8 0 -12 -3 -8 -6 9 -9 -73 -75 -84 -68 -5 3 -6 -1 -4 -8 3
-8 -8 -21 -25 -31 -17 -10 -42 -30 -55 -45 -14 -15 -25 -24 -25 -20 0 3 -17
-11 -38 -33 -22 -21 -42 -39 -45 -39 -3 0 -27 -19 -52 -42 -26 -24 -57 -48
-68 -55 -12 -7 -18 -12 -14 -13 7 0 -26 -28 -125 -108 -12 -9 -34 -28 -49 -42
-15 -14 -42 -36 -59 -50 -18 -14 -38 -30 -44 -37 -7 -6 -42 -35 -77 -64 -35
-29 -71 -60 -80 -68 -9 -9 -34 -29 -54 -46 -21 -16 -47 -38 -59 -49 -11 -10
-41 -35 -66 -55 -25 -20 -47 -39 -50 -42 -3 -3 -34 -30 -70 -59 -36 -29 -69
-58 -75 -64 -5 -6 -77 -67 -160 -136 -82 -68 -155 -129 -161 -135 -6 -5 -30
-26 -54 -45 -24 -19 -48 -39 -54 -45 -15 -14 -138 -118 -154 -130 -7 -5 -19
-15 -26 -22 -23 -20 -101 -86 -152 -128 -26 -22 -64 -54 -84 -71 -19 -17 -46
-40 -60 -51 -27 -23 -84 -71 -171 -144 -60 -52 -250 -211 -318 -268 -24 -20
-60 -50 -80 -67 -38 -34 -156 -133 -236 -199 -27 -22 -53 -45 -59 -50 -6 -6
-38 -33 -71 -60 -33 -28 -62 -52 -65 -55 -6 -6 -116 -98 -143 -120 -48 -38
-48 -36 -47 -184 1 -77 0 -145 0 -151 -1 -5 -1 -32 0 -60 0 -27 1 -58 1 -67 0
-12 25 6 76 55 87 83 128 121 244 231 195 183 396 375 456 434 36 34 66 62 67
62 1 0 42 39 92 86 49 47 141 134 204 194 63 60 143 135 176 167 34 32 106
100 160 151 55 52 168 160 253 240 85 81 166 158 181 172 32 30 290 274 364
345 29 28 112 106 185 175 73 69 158 150 190 180 32 30 124 118 206 195 81 77
169 160 195 185 26 25 109 104 185 175 76 72 180 171 232 220 52 50 118 113
147 140 30 28 116 109 192 182 77 72 166 157 198 187 59 56 77 90 20 38z"/>
<path d="M1498 8098 c-2 -18 -1 -158 2 -311 3 -154 2 -281 -1 -283 -14 -8 5
-54 30 -70 14 -9 33 -23 41 -30 16 -14 55 -48 89 -76 12 -10 25 -18 31 -18 5
0 13 -6 17 -12 4 -7 28 -29 53 -48 72 -56 79 -63 73 -73 -3 -6 -1 -7 5 -3 7 4
37 -14 70 -41 32 -26 73 -59 91 -73 18 -14 44 -35 57 -47 12 -13 26 -23 30
-23 12 0 63 -48 57 -54 -4 -3 -1 -6 6 -6 19 0 71 -42 64 -53 -3 -6 -2 -7 4 -4
5 3 20 -4 34 -17 13 -12 32 -25 43 -29 11 -4 16 -13 12 -23 -3 -8 -2 -12 4 -9
13 8 100 -57 95 -72 -2 -7 2 -10 9 -7 7 3 28 -9 47 -25 19 -16 42 -37 52 -45
9 -9 22 -16 27 -16 6 0 10 -3 10 -7 0 -5 12 -16 26 -26 l24 -18 -2 28 c-1 16
1 34 6 41 4 7 2 12 -4 12 -7 0 -8 6 -2 16 5 8 6 34 2 57 -3 23 -3 56 1 74 3
17 3 37 -2 44 -4 7 -3 21 2 31 7 12 6 18 -1 18 -7 0 -8 6 -2 16 5 8 6 35 2 60
-4 24 -5 46 -2 49 2 2 4 46 3 97 -1 51 -2 101 -2 111 0 9 -3 17 -7 17 -4 0
-18 10 -32 23 -14 12 -48 40 -75 62 -28 22 -55 44 -61 50 -6 5 -28 24 -49 40
-21 17 -129 104 -239 195 -111 90 -208 170 -216 177 -8 7 -46 37 -85 69 -81
65 -142 115 -158 129 -7 6 -37 30 -67 55 -30 25 -64 53 -74 63 -28 24 -34 22
-38 -15z"/>
<path d="M1499 6944 c-1 -164 0 -303 1 -309 1 -5 2 -17 2 -25 0 -8 -1 -117 -1
-242 0 -126 0 -236 0 -245 0 -10 0 -72 0 -138 1 -66 1 -124 0 -130 0 -10 -1
-176 0 -207 0 -24 0 -464 0 -485 0 -10 0 -72 0 -138 1 -66 1 -124 0 -130 0
-10 -1 -176 0 -207 1 -62 0 -477 -1 -493 -1 -11 -1 -24 -2 -30 0 -5 0 -356 1
-780 0 -652 1 -858 2 -942 0 -20 0 -461 0 -480 0 -10 0 -72 0 -138 1 -66 1
-127 0 -135 0 -8 0 -80 0 -160 1 -80 1 -149 0 -155 0 -5 0 -53 0 -105 0 -52 0
-104 0 -115 -5 -285 -4 -475 3 -475 5 0 4 -6 -2 -13 -7 -8 -7 -18 -2 -27 7
-11 16 -7 43 20 19 19 101 98 182 175 81 77 169 160 195 185 26 25 116 110
200 190 84 80 178 170 210 200 31 30 126 120 210 200 84 80 176 168 204 195
58 55 323 308 456 434 46 45 88 81 92 81 5 0 8 7 8 15 0 8 4 15 9 15 5 0 40
30 79 68 38 37 129 123 201 192 73 69 168 159 211 200 43 41 147 140 231 220
83 80 182 174 220 210 84 81 338 323 400 381 141 134 341 324 409 389 42 41
146 140 230 220 84 80 185 177 226 215 40 39 132 126 204 195 318 301 410 391
410 399 0 3 -28 5 -62 4 -90 -4 -96 -4 -173 -4 -68 0 -81 0 -107 2 -7 0 -26 0
-43 0 -16 -1 -43 0 -60 2 -16 1 -39 0 -50 -4 -11 -3 -29 -3 -40 1 -11 4 -28 3
-37 -2 -12 -5 -18 -5 -18 1 0 7 -8 7 -23 2 -13 -5 -30 -6 -37 -1 -7 4 -24 4
-39 0 -14 -4 -34 -4 -45 -1 -10 4 -32 6 -50 4 -17 -2 -44 -4 -60 -4 -24 0
-150 -86 -281 -191 -23 -18 -84 -64 -105 -78 -12 -8 -28 -19 -34 -25 -6 -5
-34 -27 -61 -47 -28 -21 -54 -41 -60 -46 -5 -4 -37 -28 -70 -52 -33 -24 -64
-48 -70 -53 -9 -8 -297 -223 -347 -259 -12 -9 -32 -24 -43 -33 -11 -8 -47 -36
-80 -61 -33 -25 -67 -50 -75 -57 -8 -7 -37 -28 -65 -47 -27 -19 -61 -45 -75
-57 -13 -13 -28 -23 -32 -23 -3 0 -14 -7 -22 -16 -9 -9 -56 -44 -104 -79 -48
-36 -98 -74 -112 -85 -14 -11 -54 -42 -90 -68 -35 -26 -73 -55 -82 -65 -10 -9
-21 -17 -26 -17 -4 0 -20 -11 -35 -25 -15 -14 -27 -22 -27 -18 0 4 -4 3 -8 -3
-4 -6 -54 -47 -112 -90 -58 -43 -109 -82 -115 -87 -5 -4 -53 -40 -105 -79 -52
-38 -107 -80 -122 -92 -15 -11 -48 -37 -75 -56 -26 -19 -52 -39 -58 -43 -136
-107 -194 -145 -199 -132 -3 8 -2 15 3 15 8 0 6 48 -3 92 -2 10 -1 20 4 23 4
2 4 22 0 44 -4 21 -3 46 2 55 6 10 5 16 -2 16 -7 0 -8 6 -2 16 5 8 6 34 2 57
-3 23 -3 56 1 74 3 17 3 37 -2 44 -4 7 -3 21 2 31 7 12 6 18 -1 18 -7 0 -8 6
-2 16 5 8 6 36 2 60 -4 25 -4 47 0 49 4 3 4 22 0 44 -4 21 -3 46 2 55 6 10 5
16 -2 16 -7 0 -8 6 -2 16 5 8 6 34 2 57 -3 23 -3 56 1 74 3 17 3 37 -2 44 -4
7 -3 21 2 31 7 12 6 18 -1 18 -7 0 -8 6 -2 16 5 8 6 36 2 60 -4 25 -4 47 0 49
4 3 4 22 0 44 -4 21 -3 46 2 55 6 10 5 16 -2 16 -7 0 -8 6 -2 16 5 8 6 34 2
57 -3 23 -3 56 1 74 3 17 3 37 -2 44 -4 7 -3 21 2 31 7 12 6 18 -1 18 -7 0 -8
6 -2 16 5 8 6 36 2 60 -4 25 -4 47 0 49 4 3 4 22 0 44 -4 21 -3 46 2 55 6 10
5 16 -2 16 -7 0 -8 6 -2 16 5 8 6 34 2 57 -3 23 -3 56 1 74 3 17 3 37 -2 44
-4 7 -3 21 2 31 7 12 6 18 -1 18 -7 0 -8 6 -2 16 5 8 6 36 2 60 -4 25 -4 47 0
49 4 3 4 22 0 44 -4 21 -3 46 2 55 6 10 5 16 -2 16 -7 0 -8 6 -2 16 5 8 6 34
2 57 -3 23 -3 56 1 74 3 17 3 37 -2 44 -4 7 -3 21 2 31 7 12 6 18 -1 18 -7 0
-8 6 -2 16 5 8 6 36 2 60 -4 25 -4 47 0 49 4 3 4 22 0 44 -4 21 -3 46 2 55 6
10 5 16 -2 16 -7 0 -8 6 -2 16 5 8 6 34 2 57 -3 23 -3 56 1 74 3 17 3 37 -2
44 -4 7 -3 21 2 31 7 12 6 18 -1 18 -7 0 -8 6 -2 16 5 8 6 36 2 60 -4 25 -4
47 0 49 4 3 4 22 0 44 -4 21 -3 46 2 55 6 10 5 16 -2 16 -7 0 -8 6 -2 16 5 8
6 34 2 57 -3 23 -3 57 1 75 3 17 4 32 0 32 -3 0 -17 10 -31 23 -14 12 -63 53
-110 90 -47 37 -101 80 -120 96 -66 54 -157 126 -190 151 -18 14 -41 32 -50
40 -10 8 -35 29 -56 45 -21 17 -54 44 -74 60 -20 17 -50 40 -67 53 -45 34 -95
75 -115 95 -10 9 -22 17 -27 17 -5 0 -11 3 -13 8 -1 4 -23 23 -48 42 -25 19
-47 37 -50 40 -3 3 -25 21 -50 40 -25 19 -47 37 -50 40 -3 3 -15 14 -27 24
l-23 19 -1 -299z"/>
<path d="M6009 4697 c-64 -61 -178 -170 -254 -242 -76 -71 -156 -148 -180
-170 -23 -22 -101 -96 -174 -165 -73 -69 -168 -159 -211 -200 -43 -41 -135
-129 -206 -195 -70 -66 -153 -145 -184 -175 -31 -30 -110 -104 -175 -165 -64
-60 -150 -141 -190 -180 -40 -38 -123 -117 -184 -175 -61 -58 -151 -143 -201
-190 -49 -47 -135 -128 -190 -180 -56 -52 -134 -126 -174 -165 -40 -38 -137
-131 -215 -205 -79 -74 -167 -157 -196 -185 -261 -248 -548 -519 -742 -702
-42 -39 -81 -69 -86 -66 -6 3 -8 2 -4 -3 3 -5 -1 -18 -9 -29 -8 -10 -14 -16
-14 -13 0 4 -26 -20 -59 -52 -32 -33 -61 -56 -65 -53 -3 3 -6 -1 -6 -10 0 -9
-3 -17 -8 -17 -4 0 -63 -55 -132 -122 -69 -66 -116 -115 -105 -107 11 8 22 16
25 19 6 6 185 157 214 180 10 8 39 33 65 54 25 22 55 47 65 55 10 9 40 34 65
56 26 22 66 56 90 75 23 19 53 44 65 55 13 11 45 38 71 60 27 22 56 47 65 55
9 8 38 33 65 55 28 22 55 44 61 50 6 5 35 30 64 55 30 25 62 53 72 62 10 10
22 18 27 18 5 0 11 3 13 8 1 4 37 36 78 71 41 35 97 82 124 105 79 66 82 69
136 116 29 25 59 49 67 53 7 4 23 18 36 30 13 12 36 33 53 47 69 59 150 126
167 140 11 8 27 22 36 31 9 8 43 37 76 65 33 27 65 54 71 59 6 6 33 28 60 50
27 22 61 51 76 65 16 14 34 30 41 35 57 47 440 370 462 390 7 6 29 24 50 40
21 17 45 37 54 46 13 13 101 87 289 244 13 11 38 32 55 48 18 15 53 44 80 64
26 21 47 41 47 45 0 4 7 8 15 8 8 0 15 3 15 8 0 4 38 38 85 77 47 38 85 72 85
75 0 3 12 13 28 23 15 9 43 31 63 49 20 18 58 51 85 73 26 22 58 49 70 60 12
11 37 32 55 47 19 14 45 36 59 48 46 40 65 55 200 169 74 62 157 132 183 154
27 23 53 44 58 45 11 4 12 442 2 442 -5 0 -60 -51 -124 -113z"/>
<path d="M7917 3901 c-2 -10 0 -25 4 -34 6 -10 5 -18 -1 -22 -6 -4 -7 -13 -1
-23 5 -9 5 -26 1 -37 -4 -11 -4 -29 0 -41 5 -11 5 -27 0 -34 -5 -7 -5 -23 -1
-34 4 -12 4 -34 1 -51 -4 -16 -3 -37 1 -46 4 -8 4 -21 -1 -29 -4 -7 -5 -23 0
-34 4 -12 4 -30 0 -41 -4 -11 -4 -28 1 -37 6 -10 5 -19 -1 -23 -7 -4 -7 -12 0
-25 7 -13 7 -21 0 -25 -6 -4 -7 -12 -1 -23 5 -9 5 -26 0 -39 -6 -16 -5 -23 4
-23 9 0 9 -2 0 -8 -14 -9 -5 -19 57 -62 19 -13 42 -32 51 -42 9 -10 20 -18 24
-18 4 0 20 -14 35 -30 16 -17 33 -31 37 -31 4 -1 7 -5 6 -10 -2 -5 0 -8 5 -7
14 4 53 -23 47 -33 -4 -5 -3 -8 2 -7 12 4 84 -48 76 -55 -3 -4 0 -7 8 -7 8 0
28 -14 46 -30 18 -17 36 -30 42 -30 5 0 11 -4 13 -8 2 -4 29 -28 61 -52 31
-25 57 -48 57 -53 0 -4 5 -5 12 -1 7 5 9 2 5 -9 -4 -10 -2 -14 6 -11 7 2 29
-12 50 -31 21 -19 43 -35 48 -35 6 0 8 -10 4 -22 -5 -17 -4 -19 3 -9 8 11 22
4 68 -33 33 -26 71 -57 85 -70 14 -12 34 -26 43 -29 11 -5 16 -13 12 -23 -3
-8 -2 -12 4 -9 10 6 120 -74 120 -87 0 -5 6 -8 14 -8 8 0 22 -7 31 -16 9 -9
18 -14 21 -11 6 5 6 599 0 605 -2 2 -1 15 3 30 8 28 4 32 -184 177 -16 13 -64
50 -105 82 -41 32 -82 63 -90 70 -8 7 -64 51 -125 98 -60 47 -123 96 -140 109
-16 13 -68 54 -115 90 -47 37 -92 72 -100 79 -8 7 -35 28 -60 47 -25 19 -47
37 -50 40 -3 3 -33 26 -66 52 -54 41 -62 45 -67 29z"/>
</g>
</svg>
